<svg xmlns="http://www.w3.org/2000/svg" version="1.1" xmlns:xlink="http://www.w3.org/1999/xlink" xmlns:svgjs="http://svgjs.com/svgjs" width="324" height="329"><svg xmlns="http://www.w3.org/2000/svg" width="324" height="329">
<path style="fill:#040404; stroke:none;" d="M0 0L0 329L324 329L324 0L0 0z"></path>
<path style="fill:#814f2d; stroke:none;" d="M149 6L150 7L149 6z"></path>
<path style="fill:#523a29; stroke:none;" d="M150 6L150 7L156 7L150 6M170 6L170 7L176 7L170 6z"></path>
<path style="fill:#814f2d; stroke:none;" d="M176 6L177 7L176 6z"></path>
<path style="fill:#be865c; stroke:none;" d="M140 7L141 8L140 7z"></path>
<path style="fill:#523a29; stroke:none;" d="M141 7L141 8L144 8L141 7M182 7L182 8L185 8L182 7z"></path>
<path style="fill:#814f2d; stroke:none;" d="M134 8L135 9L134 8z"></path>
<path style="fill:#523a29; stroke:none;" d="M135.667 8.33334L136.333 8.66666L135.667 8.33334M189.667 8.33334L190.333 8.66666L189.667 8.33334z"></path>
<path style="fill:#814f2d; stroke:none;" d="M129 9L130 10L129 9z"></path>
<path style="fill:#523a29; stroke:none;" d="M130.667 9.33334L131.333 9.66666L130.667 9.33334M194.667 9.33334L195.333 9.66666L194.667 9.33334z"></path>
<path style="fill:#be865c; stroke:none;" d="M196 9L197 10L196 9z"></path>
<path style="fill:#814f2d; stroke:none;" d="M125 10L126 11L125 10z"></path>
<path style="fill:#523a29; stroke:none;" d="M126 10L127 11L126 10M199 10L200 11L199 10z"></path>
<path style="fill:#814f2d; stroke:none;" d="M200 10L201 11L200 10M121 11L122 12L121 11z"></path>
<path style="fill:#523a29; stroke:none;" d="M122 11L123 12L122 11M203 11L204 12L203 11z"></path>
<path style="fill:#814f2d; stroke:none;" d="M204 11L205 12L204 11z"></path>
<path style="fill:#523a29; stroke:none;" d="M118.667 12.3333L119.333 12.6667L118.667 12.3333M206.667 12.3333L207.333 12.6667L206.667 12.3333M115 13L116 14L115 13M209.667 13.3333L210.333 13.6667L209.667 13.3333M112 14L113 15L112 14M213 14L214 15L213 14M109.667 15.3333L110.333 15.6667L109.667 15.3333M215.667 15.3333L216.333 15.6667L215.667 15.3333z"></path>
<path style="fill:#814f2d; stroke:none;" d="M106 16L107 17L106 16z"></path>
<path style="fill:#523a29; stroke:none;" d="M107 16L108 17L107 16M218 16L219 17L218 16z"></path>
<path style="fill:#814f2d; stroke:none;" d="M219 16L220 17L219 16z"></path>
<path style="fill:#523a29; stroke:none;" d="M104 17L105 18L104 17M221 17L222 18L221 17z"></path>
<path style="fill:#814f2d; stroke:none;" d="M101 18L102 19L101 18z"></path>
<path style="fill:#523a29; stroke:none;" d="M102 18L103 19L102 18M223 18L224 19L223 18z"></path>
<path style="fill:#814f2d; stroke:none;" d="M224 18L225 19L224 18M99 19L100 20L99 19z"></path>
<path style="fill:#523a29; stroke:none;" d="M100 19L101 20L100 19M225 19L226 20L225 19z"></path>
<path style="fill:#814f2d; stroke:none;" d="M226 19L227 20L226 19z"></path>
<path style="fill:#523a29; stroke:none;" d="M97 20L98 21L97 20M228 20L229 21L228 20M95 21L96 22L95 21M230 21L231 22L230 21M93 22L94 23L93 22M232 22L233 23L232 22M91 23L92 24L91 23M234 23L235 24L234 23M89 24L90 25L89 24M236 24L237 25L236 24M87 25L86 27L87 25z"></path>
<path style="fill:#814f2d; stroke:none;" d="M238 25L239 26L238 25M85 26L86 27L85 26z"></path>
<path style="fill:#523a29; stroke:none;" d="M239 26L240 27L239 26M84 27L85 28L84 27M241 27L242 28L241 27M82 28L81 30L82 28M243 28L245 30L243 28z"></path>
<path style="fill:#814f2d; stroke:none;" d="M80 29L81 30L80 29M245 29L246 30L245 29z"></path>
<path style="fill:#523a29; stroke:none;" d="M79 30L80 31L79 30M246 30L247 31L246 30z"></path>
<path style="fill:#814f2d; stroke:none;" d="M77 31L78 32L77 31M248 31L249 32L248 31z"></path>
<path style="fill:#523a29; stroke:none;" d="M76 32L77 33L76 32M249 32L250 33L249 32z"></path>
<path style="fill:#814f2d; stroke:none;" d="M74 33L75 34L74 33M251 33L252 34L251 33z"></path>
<path style="fill:#523a29; stroke:none;" d="M73 34L74 35L73 34M252 34L253 35L252 34z"></path>
<path style="fill:#814f2d; stroke:none;" d="M71 35L72 36L71 35z"></path>
<path style="fill:#523a29; stroke:none;" d="M72 35L73 36L72 35M253 35L254 36L253 35M70 36L71 37L70 36M255 36L258 39L255 36M69 37L70 38L69 37z"></path>
<path style="fill:#814f2d; stroke:none;" d="M67 38L68 39L67 38z"></path>
<path style="fill:#523a29; stroke:none;" d="M66 39L67 40L66 39z"></path>
<path style="fill:#814f2d; stroke:none;" d="M259 39L260 40L259 39z"></path>
<path style="fill:#523a29; stroke:none;" d="M65 40L66 41L65 40M260 40L261 41L260 40M64 41L65 42L64 41M261 41L262 42L261 41M262 42L263 43L262 42z"></path>
<path style="fill:#814f2d; stroke:none;" d="M61 43L62 44L61 43z"></path>
<path style="fill:#be865c; stroke:none;" d="M264 43L265 44L264 43z"></path>
<path style="fill:#523a29; stroke:none;" d="M60 44L61 45L60 44M265 44L266 45L265 44M59 45L60 46L59 45M266 45L267 46L266 45M58 46L59 47L58 46M267 46L268 47L267 46M57 47L58 48L57 47M268 47L269 48L268 47M56 48L57 49L56 48M269 48L270 49L269 48M55 49L56 50L55 49M270 49L271 50L270 49M54 50L55 51L54 50M271 50L272 51L271 50M53 51L54 52L53 51M272 51L273 52L272 51M52 52L53 53L52 52M273 52L274 53L273 52M51 53L52 54L51 53M274 53L275 54L274 53M50 54L51 55L50 54M275 54L276 55L275 54M49 55L50 56L49 55M276 55L277 56L276 55M48 56L49 57L48 56M277 56L278 57L277 56M47 57L48 58L47 57M278 57L279 58L278 57M46 58L47 59L46 58M279 58L280 59L279 58M45 59L46 60L45 59M280 59L281 60L280 59z"></path>
<path style="fill:#814f2d; stroke:none;" d="M44 60L45 61L44 60z"></path>
<path style="fill:#523a29; stroke:none;" d="M43 62L40 66L43 62M282 62L285 65L282 62z"></path>
<path style="fill:#814f2d; stroke:none;" d="M285 65L286 66L285 65z"></path>
<path style="fill:#523a29; stroke:none;" d="M39 67L37 70L39 67M286 67L289 70L286 67M36 71L35 73L36 71M289 71L291 73L289 71M291 74L293 76L291 74M33 75L34 76L33 75M293 77L295 79L293 77M31 78L32 79L31 78M30 80L29 82L30 80M295 80L296 81L295 80z"></path>
<path style="fill:#814f2d; stroke:none;" d="M296 81L297 82L296 81z"></path>
<path style="fill:#523a29; stroke:none;" d="M28 83L29 84L28 83M297 83L298 84L297 83M27 85L28 86L27 85M298 85L299 86L298 85z"></path>
<path style="fill:#915d36; stroke:none;" d="M26 86L27 87L26 86z"></path>
<path style="fill:#523a29; stroke:none;" d="M26 87L27 88L26 87M299 87L300 88L299 87z"></path>
<path style="fill:#814f2d; stroke:none;" d="M25 88L26 89L25 88z"></path>
<path style="fill:#523a29; stroke:none;" d="M24 90L25 91L24 90M301 90L302 91L301 90M23 92L24 93L23 92z"></path>
<path style="fill:#814f2d; stroke:none;" d="M302 92L303 93L302 92z"></path>
<path style="fill:#523a29; stroke:none;" d="M22 94L23 95L22 94M303 94L304 95L303 94M21 96L20 100L21 100L21 96M304 97L305 98L304 97M305 99L306 100L305 99M19 101L20 102L19 101M306 101L307 102L306 101M18.3333 103.667L18.6667 104.333L18.3333 103.667M307.333 103.667L307.667 104.333L307.333 103.667M17 106L18 107L17 106M308 106L309 107L308 106z"></path>
<path style="fill:#814f2d; stroke:none;" d="M16 108L17 109L16 108z"></path>
<path style="fill:#523a29; stroke:none;" d="M16 109L17 110L16 109M309 109L310 110L309 109M15.3333 111.667L15.6667 112.333L15.3333 111.667M310.333 111.667L310.667 112.333L310.333 111.667M14.3333 114.667L14.6667 115.333L14.3333 114.667M311 115L312 116L311 115M13 118L14 119L13 118M312 118L313 119L312 118M12.3333 121.667L12.6667 122.333L12.3333 121.667M313.333 121.667L313.667 122.333L313.333 121.667M88 124L88 125L92 125L88 124z"></path>
<path style="fill:#814f2d; stroke:none;" d="M92 124L92 125L96 125L92 124z"></path>
<path style="fill:#523a29; stroke:none;" d="M96 124L96 125L100 125L96 124M11.3333 125.667L11.6667 126.333L11.3333 125.667M83.6667 125.333L84.3333 125.667L83.6667 125.333z"></path>
<path style="fill:#814f2d; stroke:none;" d="M85 125L86 126L85 125z"></path>
<path style="fill:#915d36; stroke:none;" d="M104 171C108.886 151.351 90.2775 159.613 82.6227 147.895C74.284 135.13 100.133 138.126 105 140L105 127C95.9021 122.622 77.2593 123.863 72.0278 134.015C70.1304 137.697 70.9997 142.988 71 147C71.0002 150.094 70.4276 154.014 72.0278 156.815C77.0344 165.578 95.263 167.63 104 171z"></path>
<path style="fill:#814f2d; stroke:none;" d="M102 125L103 126L102 125z"></path>
<path style="fill:#523a29; stroke:none;" d="M103 125L104 126L103 125M137 125L137 126L174 126C164.202 121.889 147.649 125 137 125M213 125L213 139L232 139L232 138L214 138L214 126L232 126L213 125M314.333 125.667L314.667 126.333L314.333 125.667M81 126L82 127L81 126z"></path>
<path style="fill:#be865c; stroke:none;" d="M104 126C105.164 135.518 105.215 138.745 111 147L124 143C120.077 134.081 112.787 129.414 104 126z"></path>
<path style="fill:#814f2d; stroke:none;" d="M105 126L106 127L105 126z"></path>
<path style="fill:#523a29; stroke:none;" d="M106 126L107 127L106 126z"></path>
<path style="fill:#915d36; stroke:none;" d="M137 126L137 200L151 200L151 199L138 199L138 149L137 126z"></path>
<path style="fill:#be865c; stroke:none;" d="M138 126L138 199L151 199L151 173L167.674 175.603L184.184 197.972L199 199L182 172C199.737 165.406 204.02 140.369 186.985 129.931C174.058 122.008 152.618 126 138 126z"></path>
<path style="fill:#915d36; stroke:none;" d="M178 126L179 127L178 126z"></path>
<path style="fill:#814f2d; stroke:none;" d="M179 126L180 127L179 126z"></path>
<path style="fill:#523a29; stroke:none;" d="M180 126L181 127L180 126z"></path>
<path style="fill:#be865c; stroke:none;" d="M214 126L214 138L221 138L222 126L214 126z"></path>
<path style="fill:#915d36; stroke:none;" d="M221 138L249 138C249 150.713 255.381 190.037 234 188.606C229.04 188.274 225.35 184.923 221 183C221.204 186.79 219.61 195.455 222.628 198.181C229.095 204.024 250.457 201.195 254.117 192.999C256.319 188.067 254.667 179.358 254.667 174C254.667 158.376 252.844 141.468 255 126L231 126L222.078 127.564L221 138z"></path>
<path style="fill:#814f2d; stroke:none;" d="M254 127C256.493 147.381 256.835 173.665 254 194C261.659 187.989 262 179.02 262 170L262 126L254 127z"></path>
<path style="fill:#523a29; stroke:none;" d="M262 126L262 177L263 177C263 162.689 267.508 139.127 262 126M78 127L79 128L78 127z"></path>
<path style="fill:#814f2d; stroke:none;" d="M79 127L80 128L79 127z"></path>
<path style="fill:#915d36; stroke:none;" d="M107 127L108 128L107 127z"></path>
<path style="fill:#814f2d; stroke:none;" d="M108 127L109 128L108 127z"></path>
<path style="fill:#523a29; stroke:none;" d="M109 127L110 128L109 127z"></path>
<path style="fill:#814f2d; stroke:none;" d="M182 127L183 128L182 127z"></path>
<path style="fill:#523a29; stroke:none;" d="M183 127L184 128L183 127M76 128L77 129L76 128z"></path>
<path style="fill:#814f2d; stroke:none;" d="M77 128L78 129L77 128M110 128L111 129L110 128z"></path>
<path style="fill:#523a29; stroke:none;" d="M111 128L112 129L111 128z"></path>
<path style="fill:#915d36; stroke:none;" d="M184 128L185 129L184 128z"></path>
<path style="fill:#523a29; stroke:none;" d="M185 128L186 129L185 128M10.3333 129.667L10.6667 130.333L10.3333 129.667M75 129L76 130L75 129z"></path>
<path style="fill:#814f2d; stroke:none;" d="M112 129L113 130L112 129M186 129L187 130L186 129M74 130L75 131L74 130z"></path>
<path style="fill:#915d36; stroke:none;" d="M113 130L114 131L113 130z"></path>
<path style="fill:#523a29; stroke:none;" d="M114 130L115 131L114 130M188 130L189 131L188 130M315 130L316 131L315 130z"></path>
<path style="fill:#814f2d; stroke:none;" d="M73 131L74 132L73 131M115 131L116 132L115 131M189 131L190 132L189 131M72 132L73 133L72 132z"></path>
<path style="fill:#915d36; stroke:none;" d="M116 132L117 133L116 132M190 132L191 133L190 132z"></path>
<path style="fill:#814f2d; stroke:none;" d="M71 133L72 134L71 133z"></path>
<path style="fill:#915d36; stroke:none;" d="M117 133L118 134L117 133z"></path>
<path style="fill:#523a29; stroke:none;" d="M70 134L69 136L70 134z"></path>
<path style="fill:#915d36; stroke:none;" d="M118 134L119 135L118 134z"></path>
<path style="fill:#814f2d; stroke:none;" d="M192 134L193 135L192 134z"></path>
<path style="fill:#523a29; stroke:none;" d="M9.33333 135.667L9.66667 136.333L9.33333 135.667z"></path>
<path style="fill:#814f2d; stroke:none;" d="M70 135C66.2831 142.091 66.2831 148.909 70 156L71 156L70 135M119 135L120 136L119 135z"></path>
<path style="fill:#523a29; stroke:none;" d="M193 135L194 136L193 135M316.333 135.667L316.667 136.333L316.333 135.667z"></path>
<path style="fill:#814f2d; stroke:none;" d="M120 136L121 137L120 136z"></path>
<path style="fill:#523a29; stroke:none;" d="M194 136L195 137L194 136M68 137L69 138L68 137z"></path>
<path style="fill:#814f2d; stroke:none;" d="M87 137L88 138L87 137z"></path>
<path style="fill:#523a29; stroke:none;" d="M88 137L88 138L91 138L88 137M95 137L95 138L98 138L95 137z"></path>
<path style="fill:#814f2d; stroke:none;" d="M98 137L99 138L98 137z"></path>
<path style="fill:#523a29; stroke:none;" d="M121 137L122 138L121 137z"></path>
<path style="fill:#915d36; stroke:none;" d="M194 137L195 138L194 137z"></path>
<path style="fill:#814f2d; stroke:none;" d="M85 138L86 139L85 138z"></path>
<path style="fill:#523a29; stroke:none;" d="M86 138L87 139L86 138M100 138L101 139L100 138z"></path>
<path style="fill:#814f2d; stroke:none;" d="M101 138L102 139L101 138z"></path>
<path style="fill:#915d36; stroke:none;" d="M151 138L152 139L151 138z"></path>
<path style="fill:#523a29; stroke:none;" d="M195 138L196 139L195 138z"></path>
<path style="fill:#814f2d; stroke:none;" d="M248 138L248 177L249 177C249 165.828 252.311 148.274 248 138z"></path>
<path style="fill:#523a29; stroke:none;" d="M67.3333 139.667L67.6667 140.333L67.3333 139.667M84 139L85 140L84 139M103 139L104 140L103 139z"></path>
<path style="fill:#814f2d; stroke:none;" d="M122 139L123 140L122 139M151 139L151 161L152 161L151 139z"></path>
<path style="fill:#040404; stroke:none;" d="M152 139L152 161C160.018 161 171.779 163.126 178.895 158.721C186.325 154.123 184.782 143.217 176.995 140.009C169.982 137.12 159.492 139 152 139z"></path>
<path style="fill:#523a29; stroke:none;" d="M176 139L177 140L176 139z"></path>
<path style="fill:#915d36; stroke:none;" d="M177 139L178 140L177 139M195 139L196 140L195 139z"></path>
<path style="fill:#523a29; stroke:none;" d="M8 140L8 143L9 143L8 140M83 140L84 141L83 140z"></path>
<path style="fill:#814f2d; stroke:none;" d="M105 140L106 141L105 140z"></path>
<path style="fill:#523a29; stroke:none;" d="M123 140L124 141L123 140M178 140L179 141L178 140z"></path>
<path style="fill:#915d36; stroke:none;" d="M179 140L180 141L179 140z"></path>
<path style="fill:#523a29; stroke:none;" d="M196 140L197 141L196 140M82 141L83 142L82 141M106 141L107 142L106 141z"></path>
<path style="fill:#915d36; stroke:none;" d="M123 141L124 142L123 141M180 141L181 142L180 141M196 141L197 142L196 141z"></path>
<path style="fill:#523a29; stroke:none;" d="M317.333 141.667L317.667 142.333L317.333 141.667z"></path>
<path style="fill:#814f2d; stroke:none;" d="M81 142L82 143L81 142z"></path>
<path style="fill:#523a29; stroke:none;" d="M107 142L108 143L107 142M124.333 142.667L124.667 143.333L124.333 142.667z"></path>
<path style="fill:#814f2d; stroke:none;" d="M181 142L182 143L181 142z"></path>
<path style="fill:#523a29; stroke:none;" d="M197.333 142.667L197.667 143.333L197.333 142.667M81 143L81 147L82 147L81 143z"></path>
<path style="fill:#814f2d; stroke:none;" d="M123 143L124 144L123 143z"></path>
<path style="fill:#915d36; stroke:none;" d="M182 143L183 144L182 143z"></path>
<path style="fill:#523a29; stroke:none;" d="M66 144L66 147L67 147L66 144M109 144L110 145L109 144z"></path>
<path style="fill:#915d36; stroke:none;" d="M119 144L120 145L119 144z"></path>
<path style="fill:#523a29; stroke:none;" d="M120 144L121 145L120 144z"></path>
<path style="fill:#915d36; stroke:none;" d="M197 144L198 145L197 144z"></path>
<path style="fill:#814f2d; stroke:none;" d="M110 145L111 146L110 145z"></path>
<path style="fill:#915d36; stroke:none;" d="M115 145L116 146L115 145z"></path>
<path style="fill:#523a29; stroke:none;" d="M116.667 145.333L117.333 145.667L116.667 145.333z"></path>
<path style="fill:#814f2d; stroke:none;" d="M183 145L184 146L183 145M112 146L113 147L112 146z"></path>
<path style="fill:#523a29; stroke:none;" d="M113 146L114 147L113 146M183 146L184 147L183 146z"></path>
<path style="fill:#814f2d; stroke:none;" d="M81 147L82 148L81 147z"></path>
<path style="fill:#523a29; stroke:none;" d="M82 148L83 149L82 148z"></path>
<path style="fill:#915d36; stroke:none;" d="M7 149L8 150L7 149z"></path>
<path style="fill:#523a29; stroke:none;" d="M83 149L84 150L83 149z"></path>
<path style="fill:#915d36; stroke:none;" d="M184 149L185 150L184 149z"></path>
<path style="fill:#523a29; stroke:none;" d="M198 149L199 150L198 149M7 150L7 155L8 155L7 150M67.3333 150.667L67.6667 151.333L67.3333 150.667M84 150L85 151L84 150z"></path>
<path style="fill:#814f2d; stroke:none;" d="M318 150L319 151L318 150M86 151L87 152L86 151z"></path>
<path style="fill:#523a29; stroke:none;" d="M87 151L88 152L87 151M318 151L318 155L319 155L318 151z"></path>
<path style="fill:#814f2d; stroke:none;" d="M88 152L89 153L88 152z"></path>
<path style="fill:#523a29; stroke:none;" d="M89.6667 152.333L90.3333 152.667L89.6667 152.333M68 153L69 154L68 153M92.6667 153.333L93.3333 153.667L92.6667 153.333M183 153L184 154L183 153M95.6667 154.333L96.3333 154.667L95.6667 154.333z"></path>
<path style="fill:#915d36; stroke:none;" d="M183 154L184 155L183 154M197 154L198 155L197 154z"></path>
<path style="fill:#523a29; stroke:none;" d="M98.6667 155.333L99.3333 155.667L98.6667 155.333M182 155L183 156L182 155z"></path>
<path style="fill:#814f2d; stroke:none;" d="M197 155L198 156L197 155z"></path>
<path style="fill:#523a29; stroke:none;" d="M70 156L71 157L70 156z"></path>
<path style="fill:#814f2d; stroke:none;" d="M101 156L102 157L101 156z"></path>
<path style="fill:#523a29; stroke:none;" d="M102 156L103 157L102 156z"></path>
<path style="fill:#915d36; stroke:none;" d="M182 156L183 157L182 156z"></path>
<path style="fill:#523a29; stroke:none;" d="M197 156L198 157L197 156M71 157L72 158L71 157z"></path>
<path style="fill:#814f2d; stroke:none;" d="M104 157L105 158L104 157z"></path>
<path style="fill:#523a29; stroke:none;" d="M105 157L106 158L105 157z"></path>
<path style="fill:#915d36; stroke:none;" d="M181 157L182 158L181 157z"></path>
<path style="fill:#523a29; stroke:none;" d="M72 158L73 159L72 158z"></path>
<path style="fill:#be865c; stroke:none;" d="M104 158L104 171C113.847 175.608 111.972 182.702 104 188L105 200C110.214 198.301 115.756 196.594 119.787 192.671C135.354 177.524 119.866 161.67 104 158z"></path>
<path style="fill:#915d36; stroke:none;" d="M106 158L107 159L106 158z"></path>
<path style="fill:#814f2d; stroke:none;" d="M107 158L108 159L107 158z"></path>
<path style="fill:#523a29; stroke:none;" d="M108 158L109 159L108 158M179 158L180 159L179 158z"></path>
<path style="fill:#814f2d; stroke:none;" d="M196 158L197 159L196 158z"></path>
<path style="fill:#523a29; stroke:none;" d="M73 159L74 160L73 159z"></path>
<path style="fill:#814f2d; stroke:none;" d="M74 159L75 160L74 159z"></path>
<path style="fill:#915d36; stroke:none;" d="M109 159L110 160L109 159z"></path>
<path style="fill:#814f2d; stroke:none;" d="M110 159L111 160L110 159z"></path>
<path style="fill:#523a29; stroke:none;" d="M111 159L112 160L111 159z"></path>
<path style="fill:#814f2d; stroke:none;" d="M178 159L179 160L178 159z"></path>
<path style="fill:#523a29; stroke:none;" d="M196 159L197 160L196 159M75 160L76 161L75 160z"></path>
<path style="fill:#915d36; stroke:none;" d="M112 160L113 161L112 160z"></path>
<path style="fill:#814f2d; stroke:none;" d="M113 160L114 161L113 160z"></path>
<path style="fill:#523a29; stroke:none;" d="M114 160L115 161L114 160M174.667 160.333L175.333 160.667L174.667 160.333z"></path>
<path style="fill:#814f2d; stroke:none;" d="M176 160L177 161L176 160z"></path>
<path style="fill:#915d36; stroke:none;" d="M195 160L196 161L195 160z"></path>
<path style="fill:#523a29; stroke:none;" d="M76.6667 161.333L77.3333 161.667L76.6667 161.333z"></path>
<path style="fill:#814f2d; stroke:none;" d="M115 161L116 162L115 161z"></path>
<path style="fill:#523a29; stroke:none;" d="M195 161L196 162L195 161M78 162L79 163L78 162z"></path>
<path style="fill:#814f2d; stroke:none;" d="M79 162L80 163L79 162z"></path>
<path style="fill:#915d36; stroke:none;" d="M116 162L117 163L116 162z"></path>
<path style="fill:#523a29; stroke:none;" d="M117 162L118 163L117 162z"></path>
<path style="fill:#814f2d; stroke:none;" d="M194 162L195 163L194 162z"></path>
<path style="fill:#523a29; stroke:none;" d="M80.6667 163.333L81.3333 163.667L80.6667 163.333z"></path>
<path style="fill:#915d36; stroke:none;" d="M118 163L119 164L118 163z"></path>
<path style="fill:#523a29; stroke:none;" d="M83.6667 164.333L84.3333 164.667L83.6667 164.333M120 164L121 165L120 164M193 164L194 165L193 164M86.6667 165.333L87.3333 165.667L86.6667 165.333M121 165L122 166L121 165M192 165L193 166L192 165M89.6667 166.333L90.3333 166.667L89.6667 166.333z"></path>
<path style="fill:#814f2d; stroke:none;" d="M91 166L92 167L91 166z"></path>
<path style="fill:#523a29; stroke:none;" d="M122 166L123 167L122 166z"></path>
<path style="fill:#915d36; stroke:none;" d="M191 166L192 167L191 166z"></path>
<path style="fill:#523a29; stroke:none;" d="M93 167L94 168L93 167z"></path>
<path style="fill:#814f2d; stroke:none;" d="M94 167L95 168L94 167z"></path>
<path style="fill:#915d36; stroke:none;" d="M122 167L123 168L122 167z"></path>
<path style="fill:#814f2d; stroke:none;" d="M190 167L191 168L190 167z"></path>
<path style="fill:#523a29; stroke:none;" d="M96 168L97 169L96 168z"></path>
<path style="fill:#814f2d; stroke:none;" d="M97 168L98 169L97 168M123 168L124 169L123 168z"></path>
<path style="fill:#523a29; stroke:none;" d="M189 168L190 169L189 168M99 169L100 170L99 169z"></path>
<path style="fill:#814f2d; stroke:none;" d="M100 169L101 170L100 169z"></path>
<path style="fill:#523a29; stroke:none;" d="M124 169L125 170L124 169z"></path>
<path style="fill:#915d36; stroke:none;" d="M187 169L188 170L187 169z"></path>
<path style="fill:#523a29; stroke:none;" d="M7 170L7 175L8 175L7 170M102 170L103 171L102 170z"></path>
<path style="fill:#915d36; stroke:none;" d="M124 170L125 171L124 170z"></path>
<path style="fill:#523a29; stroke:none;" d="M186 170L187 171L186 170M318 170L318 174L319 174L318 170M104.667 171.333L105.333 171.667L104.667 171.333z"></path>
<path style="fill:#915d36; stroke:none;" d="M106 171L107 172L106 171z"></path>
<path style="fill:#523a29; stroke:none;" d="M125 171L126 172L125 171z"></path>
<path style="fill:#915d36; stroke:none;" d="M183 171L184 172L183 171z"></path>
<path style="fill:#523a29; stroke:none;" d="M184 171L185 172L184 171z"></path>
<path style="fill:#814f2d; stroke:none;" d="M107 172L108 173L107 172M125 172L126 173L125 172z"></path>
<path style="fill:#523a29; stroke:none;" d="M182 172L183 173L182 172M108 173L109 174L108 173z"></path>
<path style="fill:#915d36; stroke:none;" d="M125 173L126 174L125 173M151.667 173.333L152.333 173.667L151.667 173.333z"></path>
<path style="fill:#523a29; stroke:none;" d="M76 174L77 175L76 174z"></path>
<path style="fill:#814f2d; stroke:none;" d="M151 174L151 200L152 200L151 174z"></path>
<path style="fill:#523a29; stroke:none;" d="M167 174L168 175L167 174z"></path>
<path style="fill:#915d36; stroke:none;" d="M183 174L184 175L183 174z"></path>
<path style="fill:#523a29; stroke:none;" d="M73 175L74 176L73 175z"></path>
<path style="fill:#814f2d; stroke:none;" d="M74 175L75 176L74 175z"></path>
<path style="fill:#915d36; stroke:none;" d="M105 200L105 187C93.2494 189.87 82.7783 186.137 77 175C69.5525 177.009 68.4322 188.258 74.1481 193.236C81.7855 199.888 95.352 202.296 105 200z"></path>
<path style="fill:#523a29; stroke:none;" d="M110 175L111 176L110 175z"></path>
<path style="fill:#915d36; stroke:none;" d="M168 175L169 176L168 175z"></path>
<path style="fill:#523a29; stroke:none;" d="M184 175L185 176L184 175M70 176L71 177L70 176z"></path>
<path style="fill:#814f2d; stroke:none;" d="M71 176L72 177L71 176z"></path>
<path style="fill:#523a29; stroke:none;" d="M77 176L78 177L77 176z"></path>
<path style="fill:#814f2d; stroke:none;" d="M111 176L112 177L111 176z"></path>
<path style="fill:#523a29; stroke:none;" d="M126 176L126 180L127 180L126 176M66.6667 177.333L67.3333 177.667L66.6667 177.333z"></path>
<path style="fill:#814f2d; stroke:none;" d="M71 190L71 177C61.4882 178.529 65.4531 185.481 71 190z"></path>
<path style="fill:#523a29; stroke:none;" d="M111 177L111 181L112 181L111 177M169 177L170 178L169 177z"></path>
<path style="fill:#915d36; stroke:none;" d="M185 177L186 178L185 177z"></path>
<path style="fill:#523a29; stroke:none;" d="M217 177L218 178L217 177z"></path>
<path style="fill:#814f2d; stroke:none;" d="M218.667 177.333L219.333 177.667L218.667 177.333z"></path>
<path style="fill:#523a29; stroke:none;" d="M63 178L63 181L64 181L65 178L63 178z"></path>
<path style="fill:#814f2d; stroke:none;" d="M78 178L79 179L78 178z"></path>
<path style="fill:#915d36; stroke:none;" d="M170 178L171 179L170 178z"></path>
<path style="fill:#523a29; stroke:none;" d="M186 178L187 179L186 178M214 178L215 179L214 178z"></path>
<path style="fill:#915d36; stroke:none;" d="M215 178L216 179L215 178z"></path>
<path style="fill:#be865c; stroke:none;" d="M207 181C209.272 188.871 213.959 193.986 221 198C221.526 193.785 223.781 180.661 218.602 178.697C215.39 177.478 210.135 180.11 207 181z"></path>
<path style="fill:#523a29; stroke:none;" d="M247.333 178.667L247.667 179.333L247.333 178.667M79 179L80 180L79 179M210 179L211 180L210 179z"></path>
<path style="fill:#814f2d; stroke:none;" d="M211 179L212 180L211 179z"></path>
<path style="fill:#915d36; stroke:none;" d="M212 179L213 180L212 179z"></path>
<path style="fill:#814f2d; stroke:none;" d="M220 179L221 180L220 179z"></path>
<path style="fill:#523a29; stroke:none;" d="M80 180L81 181L80 180M171 180L172 181L171 180z"></path>
<path style="fill:#915d36; stroke:none;" d="M187 180L188 181L187 180z"></path>
<path style="fill:#523a29; stroke:none;" d="M207 180L208 181L207 180z"></path>
<path style="fill:#814f2d; stroke:none;" d="M208 180L209 181L208 180z"></path>
<path style="fill:#915d36; stroke:none;" d="M111 181L112 182L111 181M172 181L173 182L172 181z"></path>
<path style="fill:#523a29; stroke:none;" d="M188 181L189 182L188 181M206.333 181.667L206.667 182.333L206.333 181.667z"></path>
<path style="fill:#814f2d; stroke:none;" d="M221 181L222 182L221 181z"></path>
<path style="fill:#523a29; stroke:none;" d="M246 181L247 182L246 181M261.333 181.667L261.667 182.333L261.333 181.667M8.33333 182.667L8.66667 183.333L8.33333 182.667M64 182L65 183L64 182M110 182L111 183L110 182z"></path>
<path style="fill:#915d36; stroke:none;" d="M125 182L126 183L125 182z"></path>
<path style="fill:#523a29; stroke:none;" d="M222 182L223 183L222 182z"></path>
<path style="fill:#814f2d; stroke:none;" d="M246 182L247 183L246 182z"></path>
<path style="fill:#523a29; stroke:none;" d="M317.333 182.667L317.667 183.333L317.333 182.667M83 183L84 184L83 183M125 183L126 184L125 183z"></path>
<path style="fill:#814f2d; stroke:none;" d="M173 183L174 184L173 183z"></path>
<path style="fill:#915d36; stroke:none;" d="M189 183L190 184L189 183z"></path>
<path style="fill:#814f2d; stroke:none;" d="M207 183L208 184L207 183z"></path>
<path style="fill:#523a29; stroke:none;" d="M245 183L246 184L245 183M84 184L85 185L84 184M190 184L191 185L190 184M207 184L208 185L207 184M224 184L225 185L224 184M244 184L245 185L244 184M66 185L67 186L66 185M86 185L87 186L86 185M107 185L108 186L107 185z"></path>
<path style="fill:#915d36; stroke:none;" d="M108 185L109 186L108 185M124 185L125 186L124 185z"></path>
<path style="fill:#523a29; stroke:none;" d="M174 185L175 186L174 185z"></path>
<path style="fill:#915d36; stroke:none;" d="M208 185L209 186L208 185z"></path>
<path style="fill:#523a29; stroke:none;" d="M225 185L226 186L225 185M243 185L244 186L243 185M260 185L261 186L260 185M67 186L68 187L67 186z"></path>
<path style="fill:#814f2d; stroke:none;" d="M87 186L88 187L87 186z"></path>
<path style="fill:#523a29; stroke:none;" d="M88 186L89 187L88 186M106 186L107 187L106 186M124 186L125 187L124 186z"></path>
<path style="fill:#814f2d; stroke:none;" d="M175 186L176 187L175 186z"></path>
<path style="fill:#915d36; stroke:none;" d="M191 186L192 187L191 186z"></path>
<path style="fill:#523a29; stroke:none;" d="M208 186L209 187L208 186z"></path>
<path style="fill:#814f2d; stroke:none;" d="M226 186L227 187L226 186z"></path>
<path style="fill:#523a29; stroke:none;" d="M227 186L228 187L227 186M241 186L242 187L241 186z"></path>
<path style="fill:#814f2d; stroke:none;" d="M242 186L243 187L242 186M90 187L91 188L90 187z"></path>
<path style="fill:#523a29; stroke:none;" d="M91.6667 187.333L92.3333 187.667L91.6667 187.333M102.667 187.333L103.333 187.667L102.667 187.333z"></path>
<path style="fill:#915d36; stroke:none;" d="M123 187L124 188L123 187z"></path>
<path style="fill:#523a29; stroke:none;" d="M192 187L193 188L192 187z"></path>
<path style="fill:#814f2d; stroke:none;" d="M209 187L210 188L209 187M228 187L229 188L228 187z"></path>
<path style="fill:#523a29; stroke:none;" d="M229 187L230 188L229 187M239 187L240 188L239 187z"></path>
<path style="fill:#814f2d; stroke:none;" d="M240 187L241 188L240 187z"></path>
<path style="fill:#523a29; stroke:none;" d="M259 187L260 188L259 187M9.33333 188.667L9.66667 189.333L9.33333 188.667M68 188L69 189L68 188z"></path>
<path style="fill:#814f2d; stroke:none;" d="M97 188L98 189L97 188z"></path>
<path style="fill:#523a29; stroke:none;" d="M123 188L124 189L123 188M176 188L177 189L176 188M209 188L210 189L209 188z"></path>
<path style="fill:#814f2d; stroke:none;" d="M232 188L233 189L232 188z"></path>
<path style="fill:#523a29; stroke:none;" d="M233 188L233 189L237 189L233 188z"></path>
<path style="fill:#814f2d; stroke:none;" d="M237 188L238 189L237 188z"></path>
<path style="fill:#523a29; stroke:none;" d="M316 188L316 191L317 191L316 188M69 189L70 190L69 189z"></path>
<path style="fill:#814f2d; stroke:none;" d="M122 189L123 190L122 189M177 189L178 190L177 189M193 189L194 190L193 189z"></path>
<path style="fill:#523a29; stroke:none;" d="M210 189L211 190L210 189M258 189L259 190L258 189M70 190L71 191L70 190M194 190L195 191L194 190z"></path>
<path style="fill:#915d36; stroke:none;" d="M211 190L212 191L211 190z"></path>
<path style="fill:#523a29; stroke:none;" d="M71 191L72 192L71 191M121 191L122 192L121 191M178 191L179 192L178 191M120 192L121 193L120 192z"></path>
<path style="fill:#915d36; stroke:none;" d="M179 192L180 193L179 192z"></path>
<path style="fill:#814f2d; stroke:none;" d="M195 192L196 193L195 192M74 193L75 194L74 193z"></path>
<path style="fill:#523a29; stroke:none;" d="M119 193L120 194L119 193M196 193L197 194L196 193z"></path>
<path style="fill:#915d36; stroke:none;" d="M214 193L215 194L214 193z"></path>
<path style="fill:#523a29; stroke:none;" d="M255 193L256 194L255 193M10.3333 194.667L10.6667 195.333L10.3333 194.667M75 194L76 195L75 194z"></path>
<path style="fill:#915d36; stroke:none;" d="M117 194L118 195L117 194z"></path>
<path style="fill:#523a29; stroke:none;" d="M118 194L119 195L118 194M180 194L181 195L180 194z"></path>
<path style="fill:#814f2d; stroke:none;" d="M215 194L216 195L215 194z"></path>
<path style="fill:#523a29; stroke:none;" d="M254 194L255 195L254 194M315 194L316 195L315 194M76 195L77 196L76 195z"></path>
<path style="fill:#814f2d; stroke:none;" d="M77 195L78 196L77 195M116 195L117 196L116 195z"></path>
<path style="fill:#915d36; stroke:none;" d="M181 195L182 196L181 195z"></path>
<path style="fill:#814f2d; stroke:none;" d="M197 195L198 196L197 195z"></path>
<path style="fill:#523a29; stroke:none;" d="M216 195L217 196L216 195z"></path>
<path style="fill:#814f2d; stroke:none;" d="M252 195L253 196L252 195z"></path>
<path style="fill:#523a29; stroke:none;" d="M78 196L79 197L78 196z"></path>
<path style="fill:#915d36; stroke:none;" d="M114 196L115 197L114 196z"></path>
<path style="fill:#523a29; stroke:none;" d="M115 196L116 197L115 196M198 196L199 197L198 196M217 196L218 197L217 196z"></path>
<path style="fill:#814f2d; stroke:none;" d="M218 196L219 197L218 196z"></path>
<path style="fill:#523a29; stroke:none;" d="M251 196L252 197L251 196M80 197L81 198L80 197z"></path>
<path style="fill:#814f2d; stroke:none;" d="M81 197L82 198L81 197z"></path>
<path style="fill:#915d36; stroke:none;" d="M112 197L113 198L112 197z"></path>
<path style="fill:#523a29; stroke:none;" d="M113 197L114 198L113 197M182 197L183 198L182 197M219 197L220 198L219 197M249 197L250 198L249 197M11.3333 198.667L11.6667 199.333L11.3333 198.667M82 198L83 199L82 198z"></path>
<path style="fill:#814f2d; stroke:none;" d="M83 198L84 199L83 198z"></path>
<path style="fill:#915d36; stroke:none;" d="M109 198L110 199L109 198z"></path>
<path style="fill:#814f2d; stroke:none;" d="M110 198L111 199L110 198z"></path>
<path style="fill:#523a29; stroke:none;" d="M111 198L112 199L111 198z"></path>
<path style="fill:#915d36; stroke:none;" d="M183 198L183 199L200 200L200 199L183 198z"></path>
<path style="fill:#814f2d; stroke:none;" d="M199 198L200 199L199 198z"></path>
<path style="fill:#523a29; stroke:none;" d="M221 198L222 199L221 198M247 198L248 199L247 198M314.333 198.667L314.667 199.333L314.333 198.667M84 199L84 200L87 200L84 199z"></path>
<path style="fill:#814f2d; stroke:none;" d="M87 199L88 200L87 199z"></path>
<path style="fill:#915d36; stroke:none;" d="M106 199L107 200L106 199z"></path>
<path style="fill:#814f2d; stroke:none;" d="M107 199L108 200L107 199z"></path>
<path style="fill:#523a29; stroke:none;" d="M108 199L109 200L108 199M183 199L184 200L183 199M200 199L201 200L200 199M223 199L224 200L223 199z"></path>
<path style="fill:#814f2d; stroke:none;" d="M224 199L225 200L224 199z"></path>
<path style="fill:#523a29; stroke:none;" d="M244.667 199.333L245.333 199.667L244.667 199.333M89 200L89 201L92 201L89 200z"></path>
<path style="fill:#814f2d; stroke:none;" d="M92 200L92 201L95 201L92 200M103 200L104 201L103 200z"></path>
<path style="fill:#523a29; stroke:none;" d="M104 200L105 201L104 200M227.667 200.333L228.333 200.667L227.667 200.333z"></path>
<path style="fill:#814f2d; stroke:none;" d="M229.667 200.333L230.333 200.667L229.667 200.333M238 200L238 201L241 201L238 200z"></path>
<path style="fill:#523a29; stroke:none;" d="M241 200L242 201L241 200M12.3333 202.667L12.6667 203.333L12.3333 202.667M313.333 202.667L313.667 203.333L313.333 202.667M13 206L14 207L13 206M312 206L313 207L312 206M14 209L15 210L14 209M311 209L312 210L311 209M15 212L16 213L15 212M310 212L311 213L310 212M16 215L17 216L16 215M309 215L310 216L309 215M17 218L18 219L17 218M308 218L309 219L308 218M18 220L19 221L18 220M307 220L308 221L307 220M19 223L20 224L19 223M306 223L307 224L306 223M20 225L21 226L20 225M305 225L306 226L305 225M21 227L22 228L21 227M304 227L305 228L304 227M303 230L304 231L303 230z"></path>
<path style="fill:#814f2d; stroke:none;" d="M302 232L303 233L302 232M301 234L302 235L301 234z"></path>
<path style="fill:#523a29; stroke:none;" d="M26 237L27 238L26 237M299 237L300 238L299 237M27 239L28 240L27 239M298 239L299 240L298 239M28 241L29 242L28 241M297 241L298 242L297 241M30 244L31 245L30 244M295 244L296 245L295 244M31 246L32 247L31 246M294 246L295 247L294 246M33 249L34 250L33 249M292 249L293 250L292 249M35 252L37 254L35 252M290 252L289 254L290 252M37 255L40 258L37 255M287 256L286 258L287 256M41 260L44 263L41 260M284 260L282 263L284 260M45 265L61 281L45 265M280 265L265 281C269.996 277.481 278.529 271.07 280 265M262 282L260 285L262 282M64 283L67 286L64 283M69 287L71 289L69 287M256 287L255 289L256 287M72 289L74 291L72 289M253 289L252 291L253 289M76 292L77 293L76 292M249 292L250 293L249 292M79 294L80 295L79 294M246 294L247 295L246 294M81 295L83 297L81 295M244 295L243 297L244 295M84 297L85 298L84 297M241 297L242 298L241 297M86 298L87 299L86 298M239 298L240 299L239 298M91 301L92 302L91 301M93 302L94 303L93 302M232 302L233 303L232 302M95 303L96 304L95 303M230 303L231 304L230 303M97 304L98 305L97 304M100 305L101 306L100 305M225 305L226 306L225 305M102 306L103 307L102 306M223 306L224 307L223 306M104 307L105 308L104 307M221 307L222 308L221 307M107 308L108 309L107 308M218 308L219 309L218 308M110 309L111 310L110 309M215 309L216 310L215 309M112 310L113 311L112 310M213 310L214 311L213 310M115.667 311.333L116.333 311.667L115.667 311.333M210 311L211 312L210 311M119 312L120 313L119 312M206 312L207 313L206 312M122 313L123 314L122 313M203 313L204 314L203 313M126 314L127 315L126 314M199 314L200 315L199 314M131 315L132 316L131 315M194.667 315.333L195.333 315.667L194.667 315.333M136 316L137 317L136 316M189 316L190 317L189 316M142.667 317.333L143.333 317.667L142.667 317.333M182 317L183 318L182 317M151 318L151 319L155 319L151 318M171 318L171 319L174 319L171 318z"></path>
</svg><style>@media (prefers-color-scheme: light) { :root { filter: none; } }
</style></svg>